<mxfile host="app.diagrams.net" modified="2023-09-15T17:52:34.274Z" agent="Mozilla/5.0 (Windows NT 10.0; Win64; x64) AppleWebKit/537.36 (KHTML, like Gecko) Chrome/117.0.0.0 Safari/537.36" etag="uVyxmtPsoBLoLz8QK_ou" version="21.7.5" type="google">
  <diagram name="PÃ¡gina-1" id="s5tUJ5SfLEtWy45db_K3">
    <mxGraphModel grid="1" page="1" gridSize="10" guides="1" tooltips="1" connect="1" arrows="1" fold="1" pageScale="1" pageWidth="827" pageHeight="1169" math="0" shadow="0">
      <root>
        <mxCell id="0" />
        <mxCell id="1" parent="0" />
        <mxCell id="RQ3paC6dr6OZ25T7MvUk-3" style="edgeStyle=orthogonalEdgeStyle;rounded=0;orthogonalLoop=1;jettySize=auto;html=1;exitX=0.5;exitY=1;exitDx=0;exitDy=0;entryX=0.5;entryY=0;entryDx=0;entryDy=0;" edge="1" parent="1" source="ZZJM0qtaSS5_OayPdTkF-1" target="RQ3paC6dr6OZ25T7MvUk-1">
          <mxGeometry relative="1" as="geometry" />
        </mxCell>
        <mxCell id="ZZJM0qtaSS5_OayPdTkF-1" value="&lt;font style=&quot;vertical-align: inherit;&quot;&gt;&lt;font style=&quot;vertical-align: inherit;&quot;&gt;EMPRESA&lt;/font&gt;&lt;/font&gt;" style="rounded=1;arcSize=10;whiteSpace=wrap;html=1;align=center;fillColor=#1ba1e2;fontColor=#ffffff;strokeColor=#006EAF;" vertex="1" parent="1">
          <mxGeometry x="150" y="210" width="100" height="40" as="geometry" />
        </mxCell>
        <mxCell id="ZZJM0qtaSS5_OayPdTkF-8" style="edgeStyle=orthogonalEdgeStyle;rounded=0;orthogonalLoop=1;jettySize=auto;html=1;exitX=0.5;exitY=1;exitDx=0;exitDy=0;entryX=0.5;entryY=0;entryDx=0;entryDy=0;" edge="1" parent="1" target="ZZJM0qtaSS5_OayPdTkF-1">
          <mxGeometry relative="1" as="geometry">
            <mxPoint x="200" y="145" as="sourcePoint" />
          </mxGeometry>
        </mxCell>
        <mxCell id="ZZJM0qtaSS5_OayPdTkF-6" style="edgeStyle=orthogonalEdgeStyle;rounded=0;orthogonalLoop=1;jettySize=auto;html=1;exitX=0.5;exitY=1;exitDx=0;exitDy=0;entryX=0.5;entryY=0;entryDx=0;entryDy=0;" edge="1" parent="1" source="ZZJM0qtaSS5_OayPdTkF-3" target="ZZJM0qtaSS5_OayPdTkF-1">
          <mxGeometry relative="1" as="geometry" />
        </mxCell>
        <mxCell id="ZZJM0qtaSS5_OayPdTkF-3" value="&lt;font style=&quot;vertical-align: inherit;&quot;&gt;&lt;font style=&quot;vertical-align: inherit;&quot;&gt;&lt;font style=&quot;vertical-align: inherit;&quot;&gt;&lt;font style=&quot;vertical-align: inherit;&quot;&gt;&lt;font style=&quot;vertical-align: inherit;&quot;&gt;&lt;font style=&quot;vertical-align: inherit;&quot;&gt;Tipo_empresa&lt;/font&gt;&lt;/font&gt;&lt;/font&gt;&lt;/font&gt;&lt;/font&gt;&lt;/font&gt;" style="ellipse;whiteSpace=wrap;html=1;align=center;fontStyle=4;fillColor=#dae8fc;strokeColor=#6c8ebf;" vertex="1" parent="1">
          <mxGeometry x="320" y="100" width="100" height="40" as="geometry" />
        </mxCell>
        <mxCell id="ZZJM0qtaSS5_OayPdTkF-9" style="edgeStyle=orthogonalEdgeStyle;rounded=0;orthogonalLoop=1;jettySize=auto;html=1;exitX=0.5;exitY=1;exitDx=0;exitDy=0;entryX=1;entryY=0.5;entryDx=0;entryDy=0;" edge="1" parent="1" source="ZZJM0qtaSS5_OayPdTkF-4" target="ZZJM0qtaSS5_OayPdTkF-1">
          <mxGeometry relative="1" as="geometry" />
        </mxCell>
        <mxCell id="ZZJM0qtaSS5_OayPdTkF-4" value="&lt;font style=&quot;vertical-align: inherit;&quot;&gt;&lt;font style=&quot;vertical-align: inherit;&quot;&gt;&lt;font style=&quot;vertical-align: inherit;&quot;&gt;&lt;font style=&quot;vertical-align: inherit;&quot;&gt;Cantidad_dinero&lt;/font&gt;&lt;/font&gt;&lt;/font&gt;&lt;/font&gt;" style="ellipse;whiteSpace=wrap;html=1;align=center;fontStyle=4;fillColor=#dae8fc;strokeColor=#6c8ebf;" vertex="1" parent="1">
          <mxGeometry x="490" y="100" width="100" height="40" as="geometry" />
        </mxCell>
        <mxCell id="ZZJM0qtaSS5_OayPdTkF-10" style="edgeStyle=orthogonalEdgeStyle;rounded=0;orthogonalLoop=1;jettySize=auto;html=1;exitX=0.5;exitY=1;exitDx=0;exitDy=0;entryX=1;entryY=0.5;entryDx=0;entryDy=0;" edge="1" parent="1" source="ZZJM0qtaSS5_OayPdTkF-5" target="ZZJM0qtaSS5_OayPdTkF-1">
          <mxGeometry relative="1" as="geometry" />
        </mxCell>
        <mxCell id="ZZJM0qtaSS5_OayPdTkF-5" value="&lt;font style=&quot;vertical-align: inherit;&quot;&gt;&lt;font style=&quot;vertical-align: inherit;&quot;&gt;&lt;font style=&quot;vertical-align: inherit;&quot;&gt;&lt;font style=&quot;vertical-align: inherit;&quot;&gt;Ejecutivos&lt;/font&gt;&lt;/font&gt;&lt;/font&gt;&lt;/font&gt;" style="ellipse;whiteSpace=wrap;html=1;align=center;fontStyle=4;fillColor=#dae8fc;strokeColor=#6c8ebf;" vertex="1" parent="1">
          <mxGeometry x="660" y="100" width="100" height="40" as="geometry" />
        </mxCell>
        <mxCell id="4X0U7TACdYzJVVNF9bWs-2" style="edgeStyle=orthogonalEdgeStyle;rounded=0;orthogonalLoop=1;jettySize=auto;html=1;exitX=0.5;exitY=1;exitDx=0;exitDy=0;entryX=0.5;entryY=0;entryDx=0;entryDy=0;" edge="1" parent="1" source="rI0JE76E6pwv1XaMA74e-1" target="RQ3paC6dr6OZ25T7MvUk-17">
          <mxGeometry relative="1" as="geometry" />
        </mxCell>
        <mxCell id="4X0U7TACdYzJVVNF9bWs-3" style="edgeStyle=orthogonalEdgeStyle;rounded=0;orthogonalLoop=1;jettySize=auto;html=1;exitX=0.5;exitY=1;exitDx=0;exitDy=0;entryX=0.5;entryY=0;entryDx=0;entryDy=0;" edge="1" parent="1" source="rI0JE76E6pwv1XaMA74e-1" target="RQ3paC6dr6OZ25T7MvUk-18">
          <mxGeometry relative="1" as="geometry" />
        </mxCell>
        <mxCell id="4X0U7TACdYzJVVNF9bWs-4" style="edgeStyle=orthogonalEdgeStyle;rounded=0;orthogonalLoop=1;jettySize=auto;html=1;exitX=0.5;exitY=1;exitDx=0;exitDy=0;entryX=0.5;entryY=0;entryDx=0;entryDy=0;" edge="1" parent="1" source="rI0JE76E6pwv1XaMA74e-1" target="RQ3paC6dr6OZ25T7MvUk-19">
          <mxGeometry relative="1" as="geometry" />
        </mxCell>
        <mxCell id="4X0U7TACdYzJVVNF9bWs-5" style="edgeStyle=orthogonalEdgeStyle;rounded=0;orthogonalLoop=1;jettySize=auto;html=1;exitX=0.5;exitY=1;exitDx=0;exitDy=0;entryX=0.5;entryY=0;entryDx=0;entryDy=0;" edge="1" parent="1" source="rI0JE76E6pwv1XaMA74e-1">
          <mxGeometry relative="1" as="geometry">
            <mxPoint x="710" y="490" as="targetPoint" />
          </mxGeometry>
        </mxCell>
        <mxCell id="rI0JE76E6pwv1XaMA74e-1" value="&lt;font style=&quot;vertical-align: inherit;&quot;&gt;&lt;font style=&quot;vertical-align: inherit;&quot;&gt;&lt;font style=&quot;vertical-align: inherit;&quot;&gt;&lt;font style=&quot;vertical-align: inherit;&quot;&gt;Detalles_compra&lt;/font&gt;&lt;/font&gt;&lt;/font&gt;&lt;/font&gt;" style="rounded=1;arcSize=10;whiteSpace=wrap;html=1;align=center;fillColor=#1ba1e2;fontColor=#ffffff;strokeColor=#006EAF;" vertex="1" parent="1">
          <mxGeometry x="145" y="380" width="100" height="40" as="geometry" />
        </mxCell>
        <mxCell id="RQ3paC6dr6OZ25T7MvUk-12" style="edgeStyle=orthogonalEdgeStyle;rounded=0;orthogonalLoop=1;jettySize=auto;html=1;exitX=1;exitY=0.5;exitDx=0;exitDy=0;entryX=0.5;entryY=0;entryDx=0;entryDy=0;" edge="1" parent="1" source="rI0JE76E6pwv1XaMA74e-2" target="RQ3paC6dr6OZ25T7MvUk-10">
          <mxGeometry relative="1" as="geometry" />
        </mxCell>
        <mxCell id="RQ3paC6dr6OZ25T7MvUk-13" style="edgeStyle=orthogonalEdgeStyle;rounded=0;orthogonalLoop=1;jettySize=auto;html=1;exitX=1;exitY=0.5;exitDx=0;exitDy=0;entryX=0.5;entryY=1;entryDx=0;entryDy=0;" edge="1" parent="1" source="rI0JE76E6pwv1XaMA74e-2" target="RQ3paC6dr6OZ25T7MvUk-7">
          <mxGeometry relative="1" as="geometry" />
        </mxCell>
        <mxCell id="RQ3paC6dr6OZ25T7MvUk-14" style="edgeStyle=orthogonalEdgeStyle;rounded=0;orthogonalLoop=1;jettySize=auto;html=1;exitX=1;exitY=0.5;exitDx=0;exitDy=0;entryX=0;entryY=0.5;entryDx=0;entryDy=0;" edge="1" parent="1" source="rI0JE76E6pwv1XaMA74e-2">
          <mxGeometry relative="1" as="geometry">
            <Array as="points">
              <mxPoint x="640" y="330" />
              <mxPoint x="640" y="340" />
            </Array>
            <mxPoint x="690" y="340" as="targetPoint" />
          </mxGeometry>
        </mxCell>
        <mxCell id="RQ3paC6dr6OZ25T7MvUk-15" style="edgeStyle=orthogonalEdgeStyle;rounded=0;orthogonalLoop=1;jettySize=auto;html=1;exitX=1;exitY=0.5;exitDx=0;exitDy=0;entryX=0;entryY=0.5;entryDx=0;entryDy=0;" edge="1" parent="1" source="rI0JE76E6pwv1XaMA74e-2" target="RQ3paC6dr6OZ25T7MvUk-8">
          <mxGeometry relative="1" as="geometry">
            <Array as="points">
              <mxPoint x="640" y="330" />
              <mxPoint x="640" y="280" />
            </Array>
          </mxGeometry>
        </mxCell>
        <mxCell id="RQ3paC6dr6OZ25T7MvUk-16" style="edgeStyle=orthogonalEdgeStyle;rounded=0;orthogonalLoop=1;jettySize=auto;html=1;exitX=1;exitY=0.5;exitDx=0;exitDy=0;entryX=0;entryY=0.5;entryDx=0;entryDy=0;" edge="1" parent="1" source="rI0JE76E6pwv1XaMA74e-2" target="RQ3paC6dr6OZ25T7MvUk-11">
          <mxGeometry relative="1" as="geometry">
            <Array as="points">
              <mxPoint x="640" y="330" />
              <mxPoint x="640" y="410" />
            </Array>
          </mxGeometry>
        </mxCell>
        <mxCell id="rI0JE76E6pwv1XaMA74e-2" value="Vehiculo" style="rounded=1;arcSize=10;whiteSpace=wrap;html=1;align=center;fillColor=#1ba1e2;fontColor=#ffffff;strokeColor=#006EAF;" vertex="1" parent="1">
          <mxGeometry x="380" y="310" width="100" height="40" as="geometry" />
        </mxCell>
        <mxCell id="RQ3paC6dr6OZ25T7MvUk-4" style="edgeStyle=orthogonalEdgeStyle;rounded=0;orthogonalLoop=1;jettySize=auto;html=1;exitX=1;exitY=0.5;exitDx=0;exitDy=0;entryX=0;entryY=0.5;entryDx=0;entryDy=0;" edge="1" parent="1" source="RQ3paC6dr6OZ25T7MvUk-1" target="rI0JE76E6pwv1XaMA74e-2">
          <mxGeometry relative="1" as="geometry" />
        </mxCell>
        <mxCell id="RQ3paC6dr6OZ25T7MvUk-1" value="&lt;font style=&quot;vertical-align: inherit;&quot;&gt;&lt;font style=&quot;vertical-align: inherit;&quot;&gt;necesita&lt;/font&gt;&lt;/font&gt;" style="shape=rhombus;perimeter=rhombusPerimeter;whiteSpace=wrap;html=1;align=center;fillColor=#0050ef;fontColor=#ffffff;strokeColor=#001DBC;" vertex="1" parent="1">
          <mxGeometry x="140" y="300" width="120" height="60" as="geometry" />
        </mxCell>
        <mxCell id="RQ3paC6dr6OZ25T7MvUk-5" style="edgeStyle=orthogonalEdgeStyle;rounded=0;orthogonalLoop=1;jettySize=auto;html=1;exitX=0.5;exitY=0;exitDx=0;exitDy=0;entryX=0.5;entryY=1;entryDx=0;entryDy=0;" edge="1" parent="1" source="RQ3paC6dr6OZ25T7MvUk-2" target="rI0JE76E6pwv1XaMA74e-2">
          <mxGeometry relative="1" as="geometry" />
        </mxCell>
        <mxCell id="RQ3paC6dr6OZ25T7MvUk-6" style="edgeStyle=orthogonalEdgeStyle;rounded=0;orthogonalLoop=1;jettySize=auto;html=1;exitX=0;exitY=0.5;exitDx=0;exitDy=0;entryX=1;entryY=0.5;entryDx=0;entryDy=0;" edge="1" parent="1" source="RQ3paC6dr6OZ25T7MvUk-2" target="rI0JE76E6pwv1XaMA74e-1">
          <mxGeometry relative="1" as="geometry" />
        </mxCell>
        <mxCell id="RQ3paC6dr6OZ25T7MvUk-2" value="&lt;font style=&quot;vertical-align: inherit;&quot;&gt;&lt;font style=&quot;vertical-align: inherit;&quot;&gt;&lt;font style=&quot;vertical-align: inherit;&quot;&gt;&lt;font style=&quot;vertical-align: inherit;&quot;&gt;se compra&lt;/font&gt;&lt;/font&gt;&lt;/font&gt;&lt;/font&gt;" style="shape=rhombus;perimeter=rhombusPerimeter;whiteSpace=wrap;html=1;align=center;fillColor=#0050ef;fontColor=#ffffff;strokeColor=#001DBC;" vertex="1" parent="1">
          <mxGeometry x="370" y="370" width="120" height="60" as="geometry" />
        </mxCell>
        <mxCell id="RQ3paC6dr6OZ25T7MvUk-7" value="&lt;font style=&quot;vertical-align: inherit;&quot;&gt;&lt;font style=&quot;vertical-align: inherit;&quot;&gt;Marca&amp;nbsp;&lt;/font&gt;&lt;/font&gt;" style="ellipse;whiteSpace=wrap;html=1;align=center;fillColor=#dae8fc;strokeColor=#6c8ebf;" vertex="1" parent="1">
          <mxGeometry x="530" y="260" width="100" height="40" as="geometry" />
        </mxCell>
        <mxCell id="RQ3paC6dr6OZ25T7MvUk-8" value="&lt;font style=&quot;vertical-align: inherit;&quot;&gt;&lt;font style=&quot;vertical-align: inherit;&quot;&gt;Modelo&lt;/font&gt;&lt;/font&gt;" style="ellipse;whiteSpace=wrap;html=1;align=center;fillColor=#dae8fc;strokeColor=#6c8ebf;" vertex="1" parent="1">
          <mxGeometry x="690" y="260" width="100" height="40" as="geometry" />
        </mxCell>
        <mxCell id="RQ3paC6dr6OZ25T7MvUk-10" value="Precio" style="ellipse;whiteSpace=wrap;html=1;align=center;fillColor=#dae8fc;strokeColor=#6c8ebf;" vertex="1" parent="1">
          <mxGeometry x="530" y="390" width="100" height="40" as="geometry" />
        </mxCell>
        <mxCell id="RQ3paC6dr6OZ25T7MvUk-11" value="&lt;font style=&quot;vertical-align: inherit;&quot;&gt;&lt;font style=&quot;vertical-align: inherit;&quot;&gt;Color&lt;/font&gt;&lt;/font&gt;" style="ellipse;whiteSpace=wrap;html=1;align=center;fillColor=#dae8fc;strokeColor=#6c8ebf;" vertex="1" parent="1">
          <mxGeometry x="690" y="390" width="100" height="40" as="geometry" />
        </mxCell>
        <mxCell id="RQ3paC6dr6OZ25T7MvUk-17" value="Nombre_cliente" style="ellipse;whiteSpace=wrap;html=1;align=center;fillColor=#dae8fc;strokeColor=#6c8ebf;" vertex="1" parent="1">
          <mxGeometry x="145" y="490" width="100" height="40" as="geometry" />
        </mxCell>
        <mxCell id="RQ3paC6dr6OZ25T7MvUk-18" value="CI_cliente" style="ellipse;whiteSpace=wrap;html=1;align=center;fillColor=#dae8fc;strokeColor=#6c8ebf;" vertex="1" parent="1">
          <mxGeometry x="320" y="490" width="100" height="40" as="geometry" />
        </mxCell>
        <mxCell id="RQ3paC6dr6OZ25T7MvUk-19" value="Pagar_cantidad" style="ellipse;whiteSpace=wrap;html=1;align=center;fillColor=#dae8fc;strokeColor=#6c8ebf;" vertex="1" parent="1">
          <mxGeometry x="490" y="490" width="100" height="40" as="geometry" />
        </mxCell>
        <mxCell id="4X0U7TACdYzJVVNF9bWs-1" value="&lt;font style=&quot;vertical-align: inherit;&quot;&gt;&lt;font style=&quot;vertical-align: inherit;&quot;&gt;Placa&lt;/font&gt;&lt;/font&gt;" style="ellipse;shape=doubleEllipse;margin=3;whiteSpace=wrap;html=1;align=center;fillColor=#dae8fc;strokeColor=#6c8ebf;" vertex="1" parent="1">
          <mxGeometry x="690" y="320" width="100" height="40" as="geometry" />
        </mxCell>
        <mxCell id="4X0U7TACdYzJVVNF9bWs-6" value="&lt;font style=&quot;vertical-align: inherit;&quot;&gt;&lt;font style=&quot;vertical-align: inherit;&quot;&gt;Nombre_Empresa&lt;/font&gt;&lt;/font&gt;" style="ellipse;shape=doubleEllipse;margin=3;whiteSpace=wrap;html=1;align=center;fillColor=#dae8fc;strokeColor=#6c8ebf;" vertex="1" parent="1">
          <mxGeometry x="145" y="100" width="110" height="40" as="geometry" />
        </mxCell>
        <mxCell id="4X0U7TACdYzJVVNF9bWs-7" value="Codigo_compra" style="ellipse;shape=doubleEllipse;margin=3;whiteSpace=wrap;html=1;align=center;fillColor=#dae8fc;strokeColor=#6c8ebf;" vertex="1" parent="1">
          <mxGeometry x="660" y="490" width="100" height="40" as="geometry" />
        </mxCell>
      </root>
    </mxGraphModel>
  </diagram>
</mxfile>
